<svg width="64" height="64" viewBox="0 0 64 64" fill="none" xmlns="http://www.w3.org/2000/svg">
<path fill-rule="evenodd" clip-rule="evenodd" d="M43.0202 32.3536C42.825 32.5489 42.5084 32.5489 42.3131 32.3536L32 22.0405L21.6869 32.3536C21.4916 32.5489 21.175 32.5489 20.9798 32.3536C20.7845 32.1583 20.7845 31.8417 20.9798 31.6465L31.6464 20.9798C31.8417 20.7846 32.1583 20.7846 32.3536 20.9798L43.0202 31.6465C43.2155 31.8417 43.2155 32.1583 43.0202 32.3536Z" fill="#524338"/>
<path fill-rule="evenodd" clip-rule="evenodd" d="M32 20.8334C32.2761 20.8334 32.5 21.0572 32.5 21.3334V42.6667C32.5 42.9428 32.2761 43.1667 32 43.1667C31.7239 43.1667 31.5 42.9428 31.5 42.6667V21.3334C31.5 21.0572 31.7239 20.8334 32 20.8334Z" fill="#524338"/>
</svg>
