<svg width="40" height="40" viewBox="0 0 40 40" fill="none" xmlns="http://www.w3.org/2000/svg">
<path fill-rule="evenodd" clip-rule="evenodd" d="M7.86134 7.86137C11.0807 4.642 15.4471 2.83337 20 2.83337C24.5529 2.83337 28.9193 4.642 32.1387 7.86137C35.358 11.0807 37.1667 15.4472 37.1667 20C37.1667 24.5529 35.358 28.9193 32.1387 32.1387C28.9193 35.3581 24.5529 37.1667 20 37.1667C15.4471 37.1667 11.0807 35.3581 7.86134 32.1387C4.64196 28.9193 2.83334 24.5529 2.83334 20C2.83334 15.4472 4.64196 11.0807 7.86134 7.86137ZM20 3.83337C15.7123 3.83337 11.6003 5.53664 8.56844 8.56848C5.5366 11.6003 3.83334 15.7124 3.83334 20C3.83334 24.2877 5.5366 28.3998 8.56844 31.4316C11.6003 34.4634 15.7123 36.1667 20 36.1667C24.2877 36.1667 28.3997 34.4634 31.4316 31.4316C34.4634 28.3998 36.1667 24.2877 36.1667 20C36.1667 15.7124 34.4634 11.6003 31.4316 8.56848C28.3997 5.53664 24.2877 3.83337 20 3.83337Z" fill="#524338"/>
<path fill-rule="evenodd" clip-rule="evenodd" d="M20.3536 12.9798C20.5488 13.1751 20.5488 13.4917 20.3536 13.6869L14.0404 20L20.3536 26.3132C20.5488 26.5084 20.5488 26.825 20.3536 27.0203C20.1583 27.2155 19.8417 27.2155 19.6464 27.0203L12.9798 20.3536C12.7845 20.1583 12.7845 19.8417 12.9798 19.6465L19.6464 12.9798C19.8417 12.7846 20.1583 12.7846 20.3536 12.9798Z" fill="#524338"/>
<path fill-rule="evenodd" clip-rule="evenodd" d="M12.8333 20C12.8333 19.7239 13.0572 19.5 13.3333 19.5H26.6667C26.9428 19.5 27.1667 19.7239 27.1667 20C27.1667 20.2761 26.9428 20.5 26.6667 20.5H13.3333C13.0572 20.5 12.8333 20.2761 12.8333 20Z" fill="#524338"/>
</svg>
