<svg width="24" height="24" viewBox="0 0 24 24" fill="none" xmlns="http://www.w3.org/2000/svg">
<path fill-rule="evenodd" clip-rule="evenodd" d="M2.86612 8.11612C3.10054 7.8817 3.41848 7.75 3.75 7.75H20.25C20.5815 7.75 20.8995 7.8817 21.1339 8.11612C21.3683 8.35054 21.5 8.66848 21.5 9V19.184C21.5 20.8916 20.0544 22.25 18.375 22.25H5.625C3.93086 22.25 2.5 20.8191 2.5 19.125V9C2.5 8.66848 2.6317 8.35054 2.86612 8.11612ZM3.75 8.75C3.6837 8.75 3.62011 8.77634 3.57322 8.82322C3.52634 8.87011 3.5 8.9337 3.5 9V19.125C3.5 20.2669 4.48314 21.25 5.625 21.25H18.375C19.5316 21.25 20.5 20.3104 20.5 19.184V9C20.5 8.9337 20.4737 8.87011 20.4268 8.82322C20.3799 8.77634 20.3163 8.75 20.25 8.75H3.75Z" fill="#524338"/>
<path fill-rule="evenodd" clip-rule="evenodd" d="M12 2.75C10.9391 2.75 9.92172 3.17143 9.17157 3.92157C8.42143 4.67172 8 5.68913 8 6.75V8.25C8 8.52614 7.77614 8.75 7.5 8.75C7.22386 8.75 7 8.52614 7 8.25V6.75C7 5.42392 7.52678 4.15215 8.46447 3.21447C9.40215 2.27678 10.6739 1.75 12 1.75C13.3261 1.75 14.5979 2.27678 15.5355 3.21447C16.4732 4.15215 17 5.42392 17 6.75V8.25C17 8.52614 16.7761 8.75 16.5 8.75C16.2239 8.75 16 8.52614 16 8.25V6.75C16 5.68913 15.5786 4.67172 14.8284 3.92157C14.0783 3.17143 13.0609 2.75 12 2.75Z" fill="#524338"/>
</svg>
