<svg width="22" height="19" viewBox="0 0 22 19" fill="none" xmlns="http://www.w3.org/2000/svg">
<path fill-rule="evenodd" clip-rule="evenodd" d="M1.15993 0.500006H20.8457C21.0666 0.500788 21.2825 0.564738 21.4682 0.684309C21.6538 0.80388 21.8014 0.974077 21.8934 1.1748C21.9854 1.37552 22.0181 1.59839 21.9875 1.81708C21.957 2.03577 21.8645 2.24115 21.721 2.40897L13.813 11.6206C13.7733 11.6659 13.751 11.7238 13.75 11.784L13.75 18.6239C13.75 18.6241 13.75 18.6237 13.75 18.6239M8.24998 17.3722V11.7838C8.24941 11.7245 8.22743 11.6659 8.18732 11.6197L8.18561 11.6177L0.298132 2.43011C0.291951 2.42366 0.285927 2.41704 0.280068 2.41023C0.135403 2.2422 0.0421141 2.03611 0.0113234 1.81653C-0.0194673 1.59695 0.0135396 1.37315 0.106408 1.17181C0.199277 0.970475 0.34809 0.800091 0.535104 0.680976C0.721769 0.562084 0.938633 0.499278 1.15993 0.500006M1.1568 1.5C1.12688 1.49987 1.09755 1.50835 1.07232 1.52442C1.04708 1.5405 1.027 1.56349 1.01447 1.59066C1.00193 1.61783 0.997479 1.64803 1.00163 1.67766C1.00517 1.7029 1.01483 1.72682 1.02968 1.74736C1.03295 1.75096 1.03618 1.75461 1.03936 1.75832L8.94265 10.9643C8.94297 10.9647 8.9433 10.9651 8.94363 10.9655C9.13867 11.1908 9.24831 11.4794 9.24998 11.7792L9.24999 11.782L9.24998 17.2852L12.75 18.4497V11.7763C12.7528 11.4772 12.8624 11.189 13.0591 10.9636C13.0597 10.9629 13.0604 10.9621 13.061 10.9614L20.961 1.75904C20.961 1.75902 20.961 1.75906 20.961 1.75904C20.9804 1.73628 20.993 1.70837 20.9972 1.67872C21.0013 1.64905 20.9969 1.61881 20.9844 1.59157C20.9719 1.56433 20.9519 1.54124 20.9267 1.52501C20.9017 1.50889 20.8726 1.50022 20.8428 1.50001L1.1568 1.5Z" fill="black"/>
</svg>
