<svg width="30" height="26" viewBox="0 0 30 26" fill="none" xmlns="http://www.w3.org/2000/svg">
<path fill-rule="evenodd" clip-rule="evenodd" d="M18.6015 1.09419C19.5521 0.700295 20.571 0.497559 21.6 0.497559C22.629 0.497559 23.6479 0.700296 24.5985 1.09419C25.5491 1.48805 26.4127 2.06532 27.1401 2.79302C27.8679 3.52046 28.4452 4.38417 28.8391 5.33479C29.233 6.28541 29.4358 7.30433 29.4358 8.33333C29.4358 9.36232 29.233 10.3812 28.8391 11.3319C28.4452 12.2825 27.8679 13.1462 27.1401 13.8736L15.3535 25.6602C15.1583 25.8555 14.8417 25.8555 14.6464 25.6602L2.85978 13.8735C1.39042 12.4042 0.564941 10.4113 0.564941 8.33333C0.564941 6.25534 1.39042 4.26246 2.85978 2.79311C4.32913 1.32375 6.32201 0.498272 8.4 0.498272C10.478 0.498272 12.4709 1.32375 13.9402 2.79311L15 3.85289L16.0597 2.79319C16.7871 2.06541 17.6508 1.48808 18.6015 1.09419ZM26.433 3.50013C25.7984 2.86526 25.045 2.36163 24.2157 2.01802C23.3865 1.67441 22.4976 1.49756 21.6 1.49756C20.7024 1.49756 19.8135 1.67441 18.9843 2.01802C18.155 2.36163 17.4015 2.86526 16.767 3.50013L15.3535 4.91355C15.1583 5.10881 14.8417 5.10881 14.6464 4.91355L13.2331 3.50021C11.9513 2.21839 10.2128 1.49827 8.4 1.49827C6.58723 1.49827 4.8487 2.21839 3.56688 3.50021C2.28506 4.78203 1.56494 6.52056 1.56494 8.33333C1.56494 10.1461 2.28506 11.8846 3.56688 13.1664L15 24.5996L26.4331 13.1664C27.068 12.5319 27.5717 11.7783 27.9153 10.9491C28.2589 10.1198 28.4358 9.23096 28.4358 8.33333C28.4358 7.43569 28.2589 6.54685 27.9153 5.71758C27.5717 4.88831 27.0679 4.1347 26.433 3.50013Z" fill="#524338"/>
</svg>
