<svg width="24" height="24" viewBox="0 0 24 24" fill="none" xmlns="http://www.w3.org/2000/svg">
<rect width="24" height="24" fill="#B4B4B4"/>
<path fill-rule="evenodd" clip-rule="evenodd" d="M4.98959 4.98959C6.58365 3.39553 8.74566 2.5 11 2.5C13.2543 2.5 15.4163 3.39553 17.0104 4.98959C18.6045 6.58365 19.5 8.74566 19.5 11C19.5 13.2543 18.6045 15.4163 17.0104 17.0104C15.4163 18.6045 13.2543 19.5 11 19.5C8.74566 19.5 6.58365 18.6045 4.98959 17.0104C3.39553 15.4163 2.5 13.2543 2.5 11C2.5 8.74566 3.39553 6.58365 4.98959 4.98959ZM11 3.5C9.01088 3.5 7.10322 4.29018 5.6967 5.6967C4.29018 7.10322 3.5 9.01088 3.5 11C3.5 12.9891 4.29018 14.8968 5.6967 16.3033C7.10322 17.7098 9.01088 18.5 11 18.5C12.9891 18.5 14.8968 17.7098 16.3033 16.3033C17.7098 14.8968 18.5 12.9891 18.5 11C18.5 9.01088 17.7098 7.10322 16.3033 5.6967C14.8968 4.29018 12.9891 3.5 11 3.5Z" fill="white"/>
<path fill-rule="evenodd" clip-rule="evenodd" d="M16.2965 16.2965C16.4917 16.1012 16.8083 16.1012 17.0036 16.2965L21.3536 20.6465C21.5488 20.8417 21.5488 21.1583 21.3536 21.3536C21.1583 21.5488 20.8417 21.5488 20.6465 21.3536L16.2965 17.0036C16.1012 16.8083 16.1012 16.4917 16.2965 16.2965Z" fill="white"/>
</svg>
