<svg width="74" height="73" viewBox="0 0 74 73" fill="none" xmlns="http://www.w3.org/2000/svg">
<path d="M73.7756 68.5977L67.8352 35.8474C67.751 35.3799 67.3441 35.0383 66.8682 35.0374H44.4727V29.0117L54.1537 26.2488C54.4073 26.175 54.6202 26.0037 54.747 25.7719C54.8728 25.5401 54.9022 25.2675 54.8265 25.014L50.1293 9.47766C49.5577 7.59277 48.1999 6.04663 46.4039 5.23853L36.0711 0.582993C36.0304 0.565015 35.9888 0.548933 35.9462 0.535685L35.5914 0.432546C35.2933 0.343599 34.9716 0.400374 34.7227 0.586782C34.4739 0.772243 34.3272 1.06464 34.3272 1.37594C34.2808 3.6819 33.0242 5.79287 31.0192 6.93307C29.0132 8.07328 26.5558 8.07328 24.5508 6.93307C22.5457 5.79287 21.2881 3.68178 21.2419 1.37594C21.2428 1.06462 21.0961 0.772238 20.8473 0.586782C20.5984 0.400374 20.2758 0.343601 19.9787 0.432546L19.6238 0.535685H19.6229C19.5803 0.548933 19.5377 0.565014 19.4961 0.582993L9.16326 5.23853C7.36824 6.04755 6.00935 7.59277 5.43791 9.47766L0.73805 25.011C0.661404 25.2637 0.689791 25.5372 0.814695 25.769C0.942436 26.0008 1.15724 26.1721 1.41082 26.2459L11.0918 29.0117V52.8066C11.0889 53.0696 11.1921 53.3232 11.3766 53.5106C11.5621 53.6979 11.8147 53.8029 12.0778 53.8029H32.8439L30.0061 68.6399H30.0071C29.9314 69.1301 30.0544 69.6306 30.3506 70.029C30.6467 70.4274 31.0896 70.6904 31.5807 70.7595L46.444 72.7891C46.5254 72.8014 46.6077 72.8081 46.69 72.8071C47.5719 72.8043 48.3298 72.1807 48.5021 71.3159L51.8195 60.0131L55.2827 71.2895C55.4578 72.1515 56.2148 72.7713 57.0948 72.7732C57.1771 72.7732 57.2594 72.7675 57.3408 72.7542L72.2204 70.7331C72.7115 70.6668 73.1553 70.4057 73.4496 70.0073C73.7448 69.6004 73.8621 69.0923 73.776 68.5974L73.7756 68.5977ZM12.0781 18.2562C11.534 18.2562 11.0921 18.6981 11.0921 19.2421V26.9625L2.91276 24.6253L7.32121 10.0533L7.32216 10.0543C7.72715 8.71154 8.69326 7.61106 9.97174 7.03575L19.3877 2.79662C19.8362 5.46509 21.5271 7.76149 23.942 8.98212C26.3568 10.2028 29.2087 10.2028 31.6235 8.98212C34.0383 7.76147 35.7292 5.46485 36.1778 2.79662L45.5938 7.03575C46.8721 7.61106 47.8382 8.71154 48.2433 10.0543L52.6518 24.6262L44.4724 26.9634L44.4734 19.2421C44.4734 18.698 44.0315 18.2561 43.4874 18.2561C42.9433 18.2561 42.5014 18.698 42.5014 19.2421V51.8301H13.0649V19.2421C13.0649 18.698 12.623 18.2561 12.0789 18.2561L12.0781 18.2562ZM57.1897 70.7972V70.7764L52.733 56.3027L52.7169 56.2573C52.6782 56.1523 52.6233 56.0548 52.5532 55.9687L52.5078 55.9186L52.487 55.8978L52.4548 55.8684V55.8675C52.4416 55.8542 52.4274 55.8419 52.4123 55.8306C52.3271 55.7662 52.2325 55.7151 52.1312 55.6792L52.0858 55.6631H52.0517L51.9959 55.6498H51.6089L51.5483 55.6659H51.519L51.4584 55.6896H51.4263L51.3808 55.7132L51.3818 55.7142C51.3439 55.7312 51.308 55.7501 51.273 55.7719C51.2692 55.7738 51.2645 55.7738 51.2597 55.7719L51.2143 55.806L51.2152 55.8069C51.2039 55.8135 51.1935 55.8221 51.1831 55.8306L51.1537 55.8571L51.1112 55.894V55.9129C51.0355 55.9895 50.974 56.0794 50.9285 56.1779C50.92 56.1949 50.9134 56.2129 50.9077 56.2308L50.8841 56.2942L46.6449 70.7659L32.0274 68.7684L34.8623 53.8038H43.4995C44.0426 53.8038 44.4836 53.3638 44.4855 52.8206V37.0092H66.0578L71.8233 68.8027L57.1897 70.7972Z" fill="#524338"/>
</svg>
