<svg width="71" height="75" viewBox="0 0 71 75" fill="none" xmlns="http://www.w3.org/2000/svg">
<path d="M67.9321 19.7331L63.1426 18.2801L63.8285 15.6479C64.04 14.8867 63.9521 14.0909 63.5829 13.4076C63.2042 12.7062 62.5721 12.202 61.8253 11.9965L58.0425 10.8488L58.625 8.60486C59.0055 7.22481 58.2104 5.7964 56.8739 5.42659L40.8717 0.569482C40.6064 0.490622 40.3179 0.528858 40.0825 0.678214C39.8483 0.828766 39.6912 1.0743 39.6535 1.34912C39.3632 3.43539 37.5578 5.009 35.4518 5.009C33.3495 5.009 31.587 3.50169 31.2626 1.42437C31.2196 1.15195 31.0618 0.912367 30.8294 0.766599C30.5965 0.62023 30.3091 0.580194 30.0492 0.660257L14.1678 5.41933C12.7919 5.80168 11.9818 7.23137 12.36 8.58628L12.9431 10.875L9.22588 11.9893C8.45998 12.2013 7.82193 12.699 7.43004 13.392C7.03873 14.085 6.94075 14.8862 7.14866 15.63L7.83272 18.3149L3.11846 19.7272C1.28669 20.2362 0.208452 22.1395 0.712087 23.9504L3.59044 35.2442C3.85868 37.0406 5.7203 38.4082 7.61769 38.1626L14.5806 37.2891V72.4794C14.5806 74.6312 15.8083 74.9067 16.8789 74.9067L52.2985 74.8965L53.2114 74.9073C54.0138 74.9073 56.4536 74.9073 56.4536 72.48V37.1628L63.9447 38.1647C64.0922 38.1838 64.2386 38.1922 64.3808 38.1922C66.0471 38.1922 67.3691 36.9818 67.6135 35.239L70.4047 23.968C70.9065 22.1519 69.7875 20.2485 67.9319 19.7334L67.9321 19.7331ZM14.1978 8.0964C14.0968 7.73317 14.3113 7.35499 14.6942 7.24746L29.6395 2.76919C30.4753 5.22221 32.7723 6.91236 35.45 6.91236C38.1259 6.91236 40.4689 5.15767 41.2875 2.68492L56.3432 7.25342C56.6963 7.3514 56.8922 7.7224 56.7859 8.11193L56.2189 10.2949L42.0653 6.00119C41.8006 5.92233 41.5126 5.96056 41.2761 6.11052C41.0419 6.25987 40.8848 6.50541 40.8471 6.78142C40.4749 9.4663 38.1503 11.4903 35.4393 11.4903C32.7336 11.4903 30.4662 9.54981 30.0475 6.87456C30.0045 6.60334 29.8467 6.36377 29.6143 6.21799C29.5116 6.15346 29.3963 6.11822 29.2786 6.09551C29.2481 6.08954 29.2206 6.08596 29.1902 6.08297C29.1627 6.07998 29.134 6.07042 29.1065 6.07042C29.0139 6.07042 28.9231 6.08357 28.8335 6.11045L14.7654 10.327L14.1978 8.0964ZM8.98523 15.1389C8.90935 14.8659 8.9452 14.5773 9.08499 14.3288C9.22599 14.0785 9.456 13.8998 9.74994 13.818L28.4088 8.22614C29.3497 11.2759 32.1552 13.3945 35.4375 13.3945C38.7204 13.3945 41.5839 11.1935 42.4966 8.12214L56.6133 12.4045H56.6145L61.2929 13.8234C61.5564 13.8969 61.7744 14.0701 61.9047 14.3109C62.0397 14.5612 62.0702 14.8551 61.9877 15.155L61.318 17.7275L43.5386 12.3333C43.2733 12.2544 42.9848 12.2932 42.7494 12.442C42.5152 12.5926 42.3581 12.8381 42.3204 13.1129C41.8449 16.538 38.8805 19.1194 35.4231 19.1194C31.9724 19.1194 29.0802 16.6431 28.5449 13.2324C28.5019 12.9611 28.3441 12.7216 28.1117 12.5746C28.0078 12.5101 27.8931 12.4748 27.7748 12.4527C27.7455 12.4467 27.7174 12.4432 27.6894 12.4402C27.6607 12.4372 27.6332 12.4276 27.6045 12.4276C27.5119 12.4276 27.4211 12.4408 27.3315 12.4676L9.65609 17.7645L8.98523 15.1389ZM68.5635 23.4873L65.7532 34.8319C65.7436 34.8683 65.737 34.9042 65.7335 34.9412C65.6325 35.7471 65.0882 36.2878 64.3803 36.2878C64.3163 36.2878 64.2506 36.283 64.1909 36.2753L55.628 35.1306C55.3508 35.0942 55.0808 35.1772 54.8753 35.357C54.6673 35.5398 54.5497 35.8003 54.5497 36.0745V72.4791C54.5497 72.7826 54.5497 73.0037 53.2108 73.0037L17.6688 72.9929L16.879 73.0037C16.6956 73.0037 16.5887 72.9953 16.5277 72.9863C16.5092 72.9093 16.4841 72.7557 16.4841 72.4791V36.2107C16.4841 35.9376 16.367 35.6778 16.1615 35.4967C15.9572 35.3169 15.6913 35.2339 15.4135 35.2667L7.37815 36.2764C6.4856 36.3935 5.57039 35.7309 5.46823 34.9405C5.46225 34.9023 5.45568 34.8647 5.44612 34.827L2.54926 23.4627C2.32164 22.6442 2.80496 21.7033 3.64435 21.4698L9.24995 19.7008H9.25115L26.896 14.5002C27.9648 18.2867 31.3964 20.9799 35.4237 20.9799C39.4521 20.9799 42.9566 18.1792 43.9853 14.3687L61.7143 19.7007H61.7155L67.4018 21.4936C68.2531 21.7308 68.7896 22.6687 68.5644 23.4872L68.5635 23.4873Z" fill="#524338"/>
</svg>
