<svg width="24" height="24" viewBox="0 0 24 24" fill="none" xmlns="http://www.w3.org/2000/svg">
<path fill-rule="evenodd" clip-rule="evenodd" d="M20.2464 2.94775C20.4574 2.86605 20.6866 2.84314 20.9096 2.88147C21.1326 2.9198 21.341 3.01793 21.5126 3.1654C21.6842 3.31287 21.8125 3.50414 21.8839 3.71883C21.9553 3.93351 21.9672 4.16355 21.9181 4.38442L21.9174 4.38759L18.3934 19.7816C18.3449 19.9929 18.2423 20.1882 18.0956 20.3479C17.949 20.5075 17.7633 20.6263 17.5569 20.6926C17.3504 20.7588 17.1303 20.7702 16.9182 20.7256C16.7061 20.6811 16.5093 20.5823 16.347 20.4387C16.3469 20.4387 16.3471 20.4388 16.347 20.4387L8.02056 13.1121L3.1536 12.1352L3.15162 12.1348C1.94531 11.8876 1.76835 10.2045 2.93722 9.74562C2.93725 9.74561 2.93719 9.74563 2.93722 9.74562L20.2442 2.94862L20.2464 2.94775ZM20.6076 3.88027C20.6073 3.88037 20.6078 3.88017 20.6076 3.88027L3.30277 10.6764C3.08597 10.7615 3.0947 11.1017 3.35157 11.155C3.35184 11.1551 3.3513 11.155 3.35157 11.155L8.33455 12.1552C8.42521 12.1708 8.51041 12.2112 8.5803 12.2726L17.0093 19.6895C17.0418 19.7183 17.0812 19.7381 17.1236 19.747C17.1661 19.7559 17.2101 19.7536 17.2514 19.7404C17.2926 19.7271 17.3298 19.7034 17.3591 19.6714C17.3884 19.6395 17.4089 19.6006 17.4186 19.5584M17.4186 19.5584L20.9419 4.16761C20.942 4.1672 20.9421 4.16679 20.9422 4.16638C20.9517 4.12258 20.9492 4.07703 20.9351 4.03449C20.9208 3.99155 20.8951 3.9533 20.8608 3.9238C20.8265 3.89431 20.7848 3.87468 20.7402 3.86702C20.6959 3.8594 20.6495 3.86418 20.6076 3.88027" fill="#524338"/>
<path fill-rule="evenodd" clip-rule="evenodd" d="M21.4153 3.13723C21.577 3.3611 21.5266 3.67364 21.3027 3.83532L8.54271 13.0503C8.31884 13.212 8.0063 13.1616 7.84463 12.9377C7.68296 12.7138 7.73337 12.4013 7.95724 12.2396L20.7172 3.02462C20.9411 2.86295 21.2537 2.91337 21.4153 3.13723Z" fill="#524338"/>
<path fill-rule="evenodd" clip-rule="evenodd" d="M8.25 12.1479C8.52614 12.1479 8.75 12.3718 8.75 12.6479V18.7513C8.75019 18.8007 8.76501 18.8489 8.7926 18.8899C8.82026 18.931 8.85952 18.963 8.90538 18.9817C8.95125 19.0005 9.00164 19.0052 9.05018 18.9952C9.09872 18.9853 9.14321 18.9611 9.178 18.9259L9.1805 18.9233L9.18051 18.9233L12.1065 15.9983C12.3018 15.8031 12.6184 15.8032 12.8136 15.9985C13.0088 16.1938 13.0088 16.5103 12.8135 16.7056L9.88857 19.6295C9.71483 19.8051 9.49294 19.9253 9.25091 19.9749C9.00822 20.0246 8.75622 20.0011 8.52692 19.9073C8.29761 19.8136 8.10134 19.6538 7.96301 19.4483C7.82468 19.2428 7.75054 19.0008 7.75 18.753L7.75 18.752V12.6479C7.75 12.3718 7.97386 12.1479 8.25 12.1479Z" fill="#524338"/>
</svg>
