<svg width="24" height="24" viewBox="0 0 24 24" fill="none" xmlns="http://www.w3.org/2000/svg">
<path fill-rule="evenodd" clip-rule="evenodd" d="M4.81802 15.818C5.66193 14.9741 6.80653 14.5 8 14.5H16C17.1935 14.5 18.3381 14.9741 19.182 15.818C20.0259 16.6619 20.5 17.8065 20.5 19V21C20.5 21.2761 20.2761 21.5 20 21.5C19.7239 21.5 19.5 21.2761 19.5 21V19C19.5 18.0717 19.1313 17.1815 18.4749 16.5251C17.8185 15.8687 16.9283 15.5 16 15.5H8C7.07174 15.5 6.1815 15.8687 5.52513 16.5251C4.86875 17.1815 4.5 18.0717 4.5 19V21C4.5 21.2761 4.27614 21.5 4 21.5C3.72386 21.5 3.5 21.2761 3.5 21V19C3.5 17.8065 3.97411 16.6619 4.81802 15.818Z" fill="#524338"/>
<path fill-rule="evenodd" clip-rule="evenodd" d="M8.81802 3.81802C9.66193 2.97411 10.8065 2.5 12 2.5C13.1935 2.5 14.3381 2.97411 15.182 3.81802C16.0259 4.66193 16.5 5.80653 16.5 7C16.5 8.19347 16.0259 9.33807 15.182 10.182C14.3381 11.0259 13.1935 11.5 12 11.5C10.8065 11.5 9.66193 11.0259 8.81802 10.182C7.97411 9.33807 7.5 8.19347 7.5 7C7.5 5.80653 7.97411 4.66193 8.81802 3.81802ZM12 3.5C11.0717 3.5 10.1815 3.86875 9.52513 4.52513C8.86875 5.1815 8.5 6.07174 8.5 7C8.5 7.92826 8.86875 8.8185 9.52513 9.47487C10.1815 10.1313 11.0717 10.5 12 10.5C12.9283 10.5 13.8185 10.1313 14.4749 9.47487C15.1313 8.8185 15.5 7.92826 15.5 7C15.5 6.07174 15.1313 5.1815 14.4749 4.52513C13.8185 3.86875 12.9283 3.5 12 3.5Z" fill="#524338"/>
</svg>
